<svg xmlns="http://www.w3.org/2000/svg" viewBox="0 0 3515.94 197.8"><g id="Layer_2" data-name="Layer 2"><g id="Layer_1-2" data-name="Layer 1"><path d="M56.63,2q24.83-4.95,57.5,2.18t52.22,30.94q19.82-2.7,35.76.32T230.67,51.1q12.6,12.6,17,37.43-7.34-23-19-34.34a52.59,52.59,0,0,0-27.14-14.28,117.78,117.78,0,0,0-32.67-1.42q5.14,7.34,6.94,18.53a45.32,45.32,0,0,1-5.34,21.61q-5.33,10-17.3,17a72.71,72.71,0,0,1-25.59,9.07q-13.64,2.13-31.71-.13A77.94,77.94,0,0,1,62.55,92.45Q47.37,82.61,45.31,69.56t4.63-19.62a38.36,38.36,0,0,1,16.4-9.39A64.17,64.17,0,0,1,87,38.17a43.7,43.7,0,0,1,20.52,6q9.57,5.6,17.42,17.56a29.19,29.19,0,0,1,13.32-15.89q9.31-5.2,25.14-9.84Q144.1,14.18,112.33,8.39T57.21,7.3Q33.87,12,20.68,23.89A50,50,0,0,0,4.41,52.45,64.17,64.17,0,0,0,7.24,86q5.91,16.85,24.89,32.6T71.3,138.5a190.39,190.39,0,0,0,44.57,3.41q24.38-.76,58.39-9.2T226.36,122a296,296,0,0,1,40.77-2q22.71.26,35.57,5.46a66.59,66.59,0,0,1,22.64,15.12q9.77,9.9,6.24,24.88t-21.81,21.74q-18.25,6.76-35.43,4.25t-26.5-9.78q-9.33-7.26-7.08-17.3t17.82-15.11q15.56-5.09,38.2,7.91-23-9-35.82-4.12T247.2,165.9q-1,8,5.66,14.08t21.48,8q14.85,1.93,32.35-4.18t21-19q3.48-12.87-6-22.84A52,52,0,0,0,299,127.89q-13.25-4.11-31.52-3.67T213.88,132q-35.31,7.32-56.72,11.32A253.34,253.34,0,0,1,113,147.51a167.76,167.76,0,0,1-42.9-5q-20.19-5.13-40-21.09T4.35,87.82A78.53,78.53,0,0,1,.62,52.32q2.23-17.8,16.72-31.58T56.63,2Zm68.56,66.05Q114.51,52.51,106,47.63A44.2,44.2,0,0,0,87,42a46.39,46.39,0,0,0-18.52,2,27.14,27.14,0,0,0-12.8,8.62q-4.7,5.85-3.6,14.85t13.7,19.36q12.6,10.36,30.35,12.54t31.71-.12q14-2.33,21.42-5.41t15.3-11.7q7.84-8.62,7.85-24.7a67.11,67.11,0,0,0-6.82-18.52q-21,6.43-27.53,10.74T125.19,68.08Z"/><path d="M697,53.54a73.92,73.92,0,0,1,10.81,4.12,69.92,69.92,0,0,1,14.79,8.23q1.41.26,7.85,6.3,6.69,8.37,8.1,11.45,5.4,10.68,5.4,17.49V105a81.38,81.38,0,0,1-1.28,8.36A72.51,72.51,0,0,1,736,129.18q-.78,3-9.26,11.7a71,71,0,0,1-5.66,5q-10.42,6.69-14.54,8.23a90.29,90.29,0,0,1-17,5.53q-15.3,3-24.18,3h-4.89q-14.15-.12-14.14-.39-8.62,0-32.68-6.94a13.62,13.62,0,0,1-4,2.83q-2.7,1.92-10.17,4.24a108.13,108.13,0,0,1-19.42,1.93,6.81,6.81,0,0,1-2.18-.13,54.34,54.34,0,0,1-14.41-2.31l-1.16.64Q547.67,166,542.77,166h-4l-7.72-.25a67.1,67.1,0,0,1-12.86-2.32,110.13,110.13,0,0,1-17.88-5.92,213.32,213.32,0,0,1-23.15-12.86l.51.52v.13h-.25q-4.38,2.06-4.76,2.31-14.28,6.56-21.74,9.13-14.54,4.25-18.52,4.25-2.7.9-16.85,1.41-5.54,0-16.6-2.31-8.35-2.45-11.19-4.5a47.25,47.25,0,0,1-9.26-6.05,26.42,26.42,0,0,1-6.94-6.95,22.58,22.58,0,0,1-5.66-9.13Q364,130.86,362.3,123q-.65,0-1.15-11.7l.51-1.8a21.58,21.58,0,0,1,2.06-7.72q0-2.19,7.33-13.89,0-.26,6.69-7.59a33.52,33.52,0,0,1,4.63-4.25q8.75-6,13.12-8a95.48,95.48,0,0,1,15.82-5.28,159,159,0,0,1,23.15-2.57h5.92q5,0,24.31,3.47a234.89,234.89,0,0,1,27.14,9.65q1.43,0,22.51,12.61A124.66,124.66,0,0,1,527,82.1q2.06-1,15.18-2.19H547A50.75,50.75,0,0,1,559.88,82q3.09.25,8.49,3.09a33.81,33.81,0,0,1,9.52,5.66q1.79.9,8.74,7.71c.86.78,2,2.62,3.48,5.54q0,.38,4.63,1.67a53.45,53.45,0,0,1,12.47,6.81q1.29.39,7.59,7.08,4.89,5.66,5.92,9.52.76,0,1.8,7.59l-.13,1.28a16,16,0,0,1-1,6.18,17.9,17.9,0,0,1-3.21,6.17q16.46,5.53,18.39,5.53a148.9,148.9,0,0,0,31.26,3.86h2.05q5.14,0,19-2.7a81.38,81.38,0,0,0,14.79-5.79q1.43,0,14.8-8.62,9.25-8.49,11.06-11.7,3.86-4,8.36-14.67a66.75,66.75,0,0,0,2.7-13.5V99.85a29.37,29.37,0,0,0-2.06-9.13Q737.39,87,732.37,80.3q0-1-8.62-8.88-9.78-7.2-10.29-7.2Q702,58.82,700,58.82A71.35,71.35,0,0,0,677.83,55l-10.93.9q-13.64,2.45-19.56,5-1.67,0-11.06,5.27l-6.56,5.79q-5.65,7.45-6.56,9.52c-.51,0-1.28,3.08-2.31,9.26v2.7l.9,5.27c0,1,1.15,3.22,3.47,6.82q6.69,6.69,7.85,6.94,1.54,2.07,7.84,4.76,9.78,3.87,10.68,3.86a79.89,79.89,0,0,0,17.11,1.8l4.63-.38q5,0,15.56-3.48a52.45,52.45,0,0,0,9.91-6c2.48-2.57,3.77-4.25,3.85-5A15.59,15.59,0,0,0,705,101l-.13-1A18,18,0,0,0,701,89.3a45,45,0,0,0-11.06-6.94Q680,80,677.19,80h-4.38q-11.7,1.93-11.7,2.83-9.65,4.5-10.81,8.36v1.93a26.28,26.28,0,0,0,1.8,3.47,14.29,14.29,0,0,0,5.28,4.38q0,.76,10.93,2.44h4.25v.26l-3.48.26H667a42.14,42.14,0,0,1-7.84-.78,13.83,13.83,0,0,1-5.4-1.93c-.95-.08-2.62-1.37-5-3.85a9.58,9.58,0,0,1-1.29-4.76l.26-1.93q0-1.29,3.6-5.92a81.6,81.6,0,0,1,6.95-4.37,60.18,60.18,0,0,1,19.55-3.73,57,57,0,0,1,11.06,1.54,33.85,33.85,0,0,1,10,4.63c3.52,3,5.28,4.68,5.28,5q4.11,4.89,4.11,12.6l-.38.77a31.53,31.53,0,0,1-3,9.27,52.25,52.25,0,0,1-4.5,5.53,52.26,52.26,0,0,1-10,7.46,81.07,81.07,0,0,1-12.73,4q0,.78-11.32,1.29a140.65,140.65,0,0,1-17.11-2.44,85.66,85.66,0,0,1-15-6.82A83.17,83.17,0,0,1,623,109.37a28.22,28.22,0,0,1-3.73-6.05q-.76,0-1.8-8.87V89.82q0-1.42,2.32-10.42a54.74,54.74,0,0,1,7.46-10.55,74.81,74.81,0,0,1,8.1-6.95q2.05-1,9.91-4.76,12.21-4.37,15.05-4.37,6.3-1.41,18-1.41A104.34,104.34,0,0,1,697,53.54ZM495.56,86.6a193.93,193.93,0,0,0-20.32-11.06q-1.68-.65-13.51-4.89-17.49-4.75-23.79-4.76h-4.89q-13.12.78-15.82,1.42-4.38,0-12.09,2.57-9.52,3-12.86,5-7.47,3.85-10.81,7.2a72.36,72.36,0,0,0-8.36,9.39q-3.35,4.64-6.56,15.05-.65,0-1.67,8l.25,3.73q.78,7.47,1.68,8.62,1.28,5,6,12.35,6.43,7.2,8.36,8.36,5.4,4.38,8.23,5a70,70,0,0,0,13.38,5q2.19,1,15.18,2.06h.39a146.94,146.94,0,0,0,19.16-2.19,99.63,99.63,0,0,0,16.6-5.78,152.9,152.9,0,0,0,18.9-9.52q-8.74-5.4-26.37-15.82-.9.25-4.63,1.93-7.46,3.34-9,3.34a51.65,51.65,0,0,1-13,1.93h-2.19q-8.88-1.16-10.67-2.19-2.58,0-8.62-5.66-3.34-5-3.35-9.13v-.77q0-3.09,2.7-8.49a19.75,19.75,0,0,1,4.51-5.53,75.71,75.71,0,0,1,7.71-5.66Q419,92,420.57,92a55.53,55.53,0,0,1,14.79-2.18h2.19l8.75.51q3.34,0,13.25,2.57,10,3.73,13.5,5.79,4.5,1.68,16.21,9.26a197,197,0,0,1,18.52,13.12,10,10,0,0,0,2.7-1.41q11.44-5.14,22.38-8.88v-.13a.73.73,0,0,1-.51-.25Q514,97.67,506.62,93.16l-14.79,7a43,43,0,0,1-7.07,4.24,12,12,0,0,1-3.22-1.67q3.85-3.09,21-12.09Zm-38.71,13a50.11,50.11,0,0,0-9.78-3.08q-4.63-1.42-15.31-2.19A45.92,45.92,0,0,0,412,98.69a38.36,38.36,0,0,0-9.51,6.3q-2.83,2.19-4.63,9v2.7q0,3.73,4.11,8.36a32.34,32.34,0,0,0,6.56,3.86q8.88,1.67,10.16,1.67h5q2.7,0,10-2.19,9.13-3.21,9.78-3.85A19.18,19.18,0,0,1,440,123q-14.16-5.66-18.4-5.66h-5l-1.68.39a3.77,3.77,0,0,1-.9-1.16,10.44,10.44,0,0,1,5.92-1.41h6.17q3,0,11.32,1.93,10.43,2.56,12.87,4.11a21.58,21.58,0,0,0,4.88-2.44q11.58-6.44,13.51-8.36l4-3Q459.68,100.5,456.85,99.59Zm43,25.6q-14.42-10-23.54-15.69l-4.37,3q-13.51,8.24-17.88,10.3v.12c.42.09.64.22.64.39q2.19,0,24.7,15.82,11.06-6.95,21.22-13v-.26Zm4.5,3.21-22.12,12.74q5.78,4,11.44,7.46,4.13,2.84,15.7,8.36,15.69,5.65,26.75,5.66l10.55-.77q10.67-1.68,10.67-2.06c-1.11-.34-1.75-.56-1.93-.64q-4.23-.78-21.48-10.55-10.29-6.43-29.45-20.2ZM569.65,135q-3.46-2.07-33.18-21.74-9.91,3.6-17.5,6.81l-7.59,3.48,10.94,8.74q8.1,6.31,23.67,17a116.78,116.78,0,0,0,17.49,8.62,33.87,33.87,0,0,0,5.92-2.7q6-3.48,8-5.92a29.45,29.45,0,0,0,6.43-6.69Zm6.18-41a20.75,20.75,0,0,0-7.34-4.5,39.9,39.9,0,0,0-9.64-3.86q-2.83-1.16-14.41-2.19l-7.33.26q-3.21,0-18.52,4.63v.13l1.8,1q1.92,1,25,17.37,9.27-2.44,10.42-2.71a163.22,163.22,0,0,1,24.31-1.8l4.63.65H585Q579.17,96.12,575.83,93.93Zm11.57,13.25a125.33,125.33,0,0,0-13.89-2.06c-3.86.35-7.12.73-9.77,1.16a137.76,137.76,0,0,0-14.8,2.83v.26l12.22,8.49q14.93,10.68,26.63,17.62,1.41-2.7,3-11.45v-6.56Q589.07,109.37,587.4,107.18ZM607.6,153a187.47,187.47,0,0,1-20.32-8.87c-.26,0-.44.17-.52.51q0,1-7.33,8-9.27,6.69-10.55,6.69v.25q3.6,1.16,13.25,2.19a58.29,58.29,0,0,0,19.17-3.34,39.12,39.12,0,0,0,8.36-4.38A9.32,9.32,0,0,0,607.6,153Zm10.8-19.55q-1.92-6-2.7-6.82a37.15,37.15,0,0,0-5.92-8.1,65.89,65.89,0,0,0-6.43-5q-8.61-4.37-10.8-4.63a17.37,17.37,0,0,0,1,3.6c.94,2,1.41,5.66,1.41,11.07l-1.16,5.27q0,1.8-3,8.49h.25A250.25,250.25,0,0,0,614.8,149c.77-.25,1.8-1.84,3.09-4.75q.76,0,1.28-6.31Z"/><path d="M990.19,39.52q17.1,13.38,45.28,45,19.15,23.42,39.1,44.51,21.09,20.58,23.41,21.09,18,14.42,35.76,14.41H1135q11.84,0,26-9.52,12.6-11.19,12.6-25.73a35.42,35.42,0,0,0-8.49-22.89q-14-14.14-35.5-14.15l-8,1v-.52a94.65,94.65,0,0,1,17.75-2.31h3.34a46.16,46.16,0,0,1,25.73,7.72q13.38,11.83,13.37,29.07,0,19-16.46,31.38-12.74,8.24-29.58,8.23h-1q-23.67,0-54.8-27.27-5-2.43-37-36Q1015,73.48,996.62,57a224.79,224.79,0,0,0-25.47-19.55Q945,22.8,924.33,22.8q-31.12,0-51.71,22.9l.52.51A82.67,82.67,0,0,1,893.2,56.76Q906.07,68,906.07,77.34A33.84,33.84,0,0,1,905,84q-5.67,10.55-14.92,10.55h-1.29A27.56,27.56,0,0,1,882.14,93Q865.42,82.49,865.42,63.7l.26-4.88q1.8-8.37,3.34-10.55V48a97,97,0,0,0-32.93-6.17h-4.37q-11.84,0-28.81,8.74-20.32,13.26-20.33,37.56v.26q0,17.88,14.41,35,26.75,28.29,80.26,28.3A143.6,143.6,0,0,0,896,150.4v.51a190.51,190.51,0,0,1-36,3.61q-58.66,0-81-35.76-9-15.57-9-29.33,0-26.76,25.21-41.67,19.42-9.27,36-9.27h3.86a86.37,86.37,0,0,1,34.48,7.21l4.63-6.18Q885,29,894.23,24.34a75.54,75.54,0,0,1,29.33-7.71Q961.24,16.63,990.19,39.52Zm-118.6,8.75Q868,54.06,868,63.19a33.92,33.92,0,0,0,6.69,20.32q7.59,8.76,13.89,8.75h2.06q12.86-2.19,12.86-14.66v-.26Q903.49,60.61,871.59,48.27Z"/><path d="M1461.66,158.63a151,151,0,0,1-36.27-12.86q-9.53-4.89-17-9.39a201.1,201.1,0,0,1-23.67-17.24q-9.26-7.85-12.6-10.16a125.43,125.43,0,0,0-13-8.23q-28.31-14.4-56.73-14.41h-5.14a39.69,39.69,0,0,0-5.54.26v-.26q12.87-2.82,18.66-2.83h8.49a98.63,98.63,0,0,1,13.37,1.42,108.29,108.29,0,0,1,16,4h.13v-.13a257.67,257.67,0,0,0-46.82-19.94q-8.88-3.34-24.7-6.17v-.26q15.06,0,37.82,5.66,20.71,5.91,33.57,12.47l-7.84-5a169.92,169.92,0,0,0-39.75-17q-18.52-4.5-27.91-4.5h-5.4q-7.08,0-18,3.21a79.76,79.76,0,0,0-13.12,5.92,76.74,76.74,0,0,0-10.42,8.36,60.86,60.86,0,0,0-10.29,14.28q-3.85,9.65-3.86,16.85v1.8c.51,4.46,1,7.07,1.41,7.85q0,3.47,5.41,12.22,1,2.82,9.13,9.9a73,73,0,0,0,11.7,7.07,71.09,71.09,0,0,0,27.4,5.54h1.93l5.4-.26q13.13-1.68,20.33-5.28h.25a51,51,0,0,1-18.26,8.36q0,.66-12.09,1.93h-5.15l-6.56-.51q-10.68-1.8-14.92-3.86-14-5.52-21.61-16.46a54,54,0,0,1-6.17-13.51,67.55,67.55,0,0,1-1.93-13.63v-2.06l.64-4.76a41.1,41.1,0,0,1,3-10,47,47,0,0,1,7-10.68,62.86,62.86,0,0,1,12.86-11.58,81.88,81.88,0,0,1,13.38-6.81q15.16-6.44,35.76-6.44,22.63,0,46,9.27a174.8,174.8,0,0,1,25.22,13.37q3.46,1.68,41.29,28.69a352.22,352.22,0,0,0,31.12,18.26,309.23,309.23,0,0,0,38.59,16,252.9,252.9,0,0,0,33.44,9v.25l-9.9-1.54a305.45,305.45,0,0,1-40.9-9.9q-26.76-8.49-46.82-20.2,24.95,17.88,39,24.44a109.72,109.72,0,0,0,51.71,13.12,90.89,90.89,0,0,0,21.74-3.22,82.46,82.46,0,0,0,14.79-6.3q4.11-1.92,11.83-8.62a57.26,57.26,0,0,0,8.75-10.8q6-11.07,6-18.27v-3.73a40.25,40.25,0,0,0-8.11-24.05c-.51-1.29-3.52-4.2-9-8.75a58.15,58.15,0,0,0-32.16-9.64h-5.66a72.77,72.77,0,0,0-13.76,1.93q-8.49,2.56-12.09,5.53,3.6,1,10.54,7.46,6.18,7.59,6.82,13a46.13,46.13,0,0,1,7.33-.64q9.52,0,15.7,3.21,8.61,5.28,8.61,13.38v1.67q0,8-7.71,14.41a39,39,0,0,1-6.18,4.11q-8.87,3.61-15.69,3.6h-1.29c-3.68,0-5.79-.12-6.3-.38A30.7,30.7,0,0,1,1468,119.4q-5.92-5-8.24-9.9a40.77,40.77,0,0,1-4.37-16,29.77,29.77,0,0,1,4.12-16,40.39,40.39,0,0,1,9.39-10.17v-.12l-4-1.55q-16.86-5.4-30.49-5.4h-2.57q-18,0-36.92,8.23a85,85,0,0,0-19.55,11.84h-.13c.69-.6,1-1,1-1.16q22.9-21.61,51.45-21.61h5.15a113.3,113.3,0,0,1,22.51,2.83q9.78,2.58,14.79,5.53a64.19,64.19,0,0,1,12.35-7.46q10.8-4.11,17.49-4.12h5.53a70.58,70.58,0,0,1,14,1.93,60.22,60.22,0,0,1,11.71,4.12q5.54,2.31,13.38,9.39,12.21,13.38,12.22,28v.9q0,4.89-3,14.41-7.47,19-26.76,30.1a94.79,94.79,0,0,1-44.5,10.67h-3.86a99.27,99.27,0,0,1-22.51-3.09,127.21,127.21,0,0,1-16.85-5.53q-10.68-4.62-18.27-8.74a247.81,247.81,0,0,0,31.52,16.46q17.1,6.56,18.91,6.56v.26Zm-4.63-61a36.1,36.1,0,0,0,6.69,14.67q10.29,12.74,28.17,12.73a33.36,33.36,0,0,0,17.11-4.5q9.9-7.2,9.9-14.92v-.39q0-6.94-7.59-13.25a27.94,27.94,0,0,0-16.59-5,29.49,29.49,0,0,0-5.53.38v.13a35.28,35.28,0,0,1-1.16,8.1q-3.46,5.67-6.82,5.66h-.9c-1.28,0-2.23-.94-2.83-2.83a9.73,9.73,0,0,1,2.83-6.68,15.05,15.05,0,0,1,7.46-5h.39a12.78,12.78,0,0,0-1-3.73,33.11,33.11,0,0,0-7.85-10.16,26.16,26.16,0,0,0-9.39-5.15v.13a47.73,47.73,0,0,0-5.53,5.4q-8,10.29-8,17.37V92l-.13.13A46.1,46.1,0,0,1,1457,97.66Zm23.54,3.09a3.92,3.92,0,0,0,1.8-.39q5.79-3,5.79-12.6v-.13h-.39l-3,1q-6.43,4.25-6.44,9.39Q1479,100.75,1480.57,100.75Z"/><path d="M1756.49,197.8q-9.93,0-19.51-9.58l-2.79-4.53-5,.69q-16.22,0-22.31-17.94l-.52-7.32q0-12.54,13.42-30.67L1699,108.94l-7.84,7.84q13.42,16.38,13.42,27.36v1q0,16.2-15,16.21-10.45,0-14.11-12.2a47,47,0,0,1,7.32-25.79l-11.5-9.58q-18.82,10.64-30.32,10.63-17.6,0-31.19-13.42-4,5.75-8.88,5.75h-1.22q-11.16-2.09-11.15-10.63,0-8.19,12.89-11.67a21.51,21.51,0,0,1,13.42,5q7.83-10.62,18.47-13.42l2.09-.52h3.48q17.07,0,39.55,17.77v.7q1.39,0,8.37-9.06-10.63-12.72-10.63-25.09,1.56-18.46,13.94-18.47h1q10.45,0,12.9,16.21,0,6.43-7.85,21.78l9.59,9.58L1718,87.16q-11.67-17.94-11.67-32.93,0-16.2,19-26.31l6.62-1.05h.7l3.83.53q8.9-12.9,23-12.9,19.69.71,24.57,12.37l1.57-.52q17.42,0,23.52,17.77l.52,7.84q0,12.21-12.89,30.32,16,16.56,20.21,19.52l7.84-7.32q-13.41-18.12-13.41-28.4,0-14.11,11.67-16.21l3.31-.69q9.41,0,13.42,11.15l.69,2.26a43.38,43.38,0,0,1-7.31,24.57l11,10.11q18.64-11.16,30.84-11.16,16.56,0,31.19,13.42,4.35-5.22,8.89-5.58h1.22q9.57,0,11.15,11.68-3.5,10.45-13.42,10.45-6.27,0-12.89-5h-.52a30.5,30.5,0,0,1-11.68,11.33,20.17,20.17,0,0,1-10.1,2.78h-1.75q-17.07,0-39.55-17.94H1837a43.62,43.62,0,0,0-7.84,8.88q10.62,12.37,10.63,24.57,0,15-11.15,18.47l-3.31.52h-.53q-9.24,0-12.89-16.2,0-5.06,7.32-21.78v-1q-2.79-1.74-8.37-8.88L1798,122.88q11.67,20,11.67,33.45,0,17.25-20,26.83l-5.06.53h-2.26Q1773.38,197.81,1756.49,197.8Zm-150-90.08q-2.27-2.44-7.84-4.88-6.27,1.23-6.27,3.31c.81,2.91,3.08,4.36,6.79,4.36Q1601.59,110.51,1606.47,107.72Zm62,4Q1647.59,94,1635.4,94a19.57,19.57,0,0,0-16.73,8.37q16.2,14.46,25.09,14.46H1650Q1655.78,116.78,1668.5,111.73Zm28.92-5.06-9.58-9.4q0,1.56-6.62,8.36l8.36,8.89Zm-5.05-22.3q2.79-5.06,2.79-7.84V73.74q-.71-15-5.05-15h-.53q-5.58,0-6.79,7.32Q1683.14,73.75,1692.37,84.37Zm5.05,63.08q0-9.42-11.84-20.22a21.47,21.47,0,0,0-2.79,10.11v5q0,10.63,7.84,12.37h1Q1697.43,154.76,1697.42,147.45Zm41.3-39.21L1722,89.43q-1,0-14.11,12.37l19.69,18.29Q1738.72,109.64,1738.72,108.24Zm-11.68-30,10.46-12.19q-5.58-12.55-5.58-24l1.22-7.32-5.05-1q-13.93,4.88-13.94,22.3v.52A56.21,56.21,0,0,0,1727,78.27Zm4.36,99.32-1-6.1q0-11.51,7.14-24A166.43,166.43,0,0,0,1723,132.29a36.91,36.91,0,0,0-7.32,21.78q2.08,20,11.32,22.47Zm15.68-77.54,6.62-7.84q-6.27-6.79-13.41-21.25h-.53l-9.93,11.32Zm-3.83,38.51q2.26-4.19,11.15-13.42L1742,111.73l-11.15,12.72Q1735.76,128.62,1743.25,138.56ZM1742,48.65a15.16,15.16,0,0,0-4.53-11.15l-.52,6.1L1740.29,56C1741.21,56,1741.8,53.53,1742,48.65Zm2.26,112.21a11.32,11.32,0,0,0-3.31-8.36h-.69l-1.57,10.63,1.57,9.41Q1744.3,168.18,1744.29,160.86Zm27.36-91q-4.53-8.88-4.53-16.73v-4a26.37,26.37,0,0,1,6.8-17.78q-5.42-10.62-16.73-10.62-16.2,3.3-16.21,9.93,9.42,7.14,9.41,16.9,0,7.49-5.05,16.2,1.22,3.31,16.9,19.52Q1765,81.41,1771.65,69.91Zm5.57,112.21v-.52q-11.67-7.66-11.67-17.95,0-7.32,6.1-18-8.88-12-14.46-17.25a48.61,48.61,0,0,0-12.37,13.94,35.73,35.73,0,0,1,4,15.68v4.36q0,7.5-5,15.16v.52q7.14,11.85,17.77,11.85Q1770.44,190,1777.22,182.12Zm-14.46-63.77,5.58-6.62v-1.22q-11-12-12.37-15.51h-.52l-6.1,7.84Zm15-18.3,9.06-11.67Q1775,77.06,1775,74.44l-10.63,12.2Zm9.06,28.4L1770.6,113.3l-6.27,7.31a118.94,118.94,0,0,1,12.37,18.47Zm-10.63-68.12a74.08,74.08,0,0,0,2.26-16.73l-1.22-6.1h-1a18.71,18.71,0,0,0-4.53,12.37q0,3.32,4,10.46ZM1780,174.8l.53-6.62A24.9,24.9,0,0,0,1775,152.5l-1,8.89Q1773.92,170.11,1780,174.8Zm21.78-20q0-4.69-12.19-22.47h-.7l-9.41,10.63q7.85,14.12,7.84,24.56l-1.74,9.59h.52q13.41,0,15.68-21.26Zm-8.88-76.49q7.32-10.45,7.31-20V57Q1799,38.38,1788.9,34.19l-2.09-.52v.52l.52,3.84q0,12.19-6.79,28.05Zm15.16,31.19L1789.6,91.69l-9.06,11.15v.52q15.15,15.51,15.15,16.73Zm22.3-26.13a21.59,21.59,0,0,0,2.79-10.11v-5q0-10.8-9.59-12.2-5.05,1.58-5,7.84Q1818.52,71.66,1830.37,83.33Zm-2.27,30q0-1.58,6.62-8.19-7.67-7.32-7.66-8.89l-7.84,7.84q5.74,7.66,8.36,9.24Zm5.06,32.4q0-9.22-9.59-19c-1.86,3.37-2.79,6-2.79,7.84v1.75q0,16.2,7.32,16.2Q1833.16,149.89,1833.16,145.7Zm64.64-37.46q-18.12-13.76-25.09-13.76h-6.8q-5.75,0-18.47,5,19.51,17.25,33.63,17.25Q1890.48,116.78,1897.8,108.24Zm25.79-3.66c0-1.27-2.1-2.61-6.28-4l-7.84,2.26q4.88,5.05,8.37,5.4Q1923.59,107.55,1923.59,104.58Z"/><path d="M2044.38,159.92v-.26q1.8,0,18.91-6.56a247.63,247.63,0,0,0,31.51-16.46q-7.59,4.11-18.26,8.74a127.81,127.81,0,0,1-16.86,5.53,99.27,99.27,0,0,1-22.51,3.09h-3.85a94.83,94.83,0,0,1-44.51-10.67q-19.29-11.07-26.75-30.1-3-9.53-3-14.41v-.9q0-14.67,12.22-28,7.85-7.08,13.37-9.39a60.46,60.46,0,0,1,11.71-4.12,70.68,70.68,0,0,1,14-1.93H2016q6.69,0,17.49,4.12A64.19,64.19,0,0,1,2045.79,66q5-3,14.8-5.53a113.21,113.21,0,0,1,22.5-2.83h5.15q28.56,0,51.45,21.61c0,.17.34.56,1,1.16h-.13A84.57,84.57,0,0,0,2121,68.59q-18.91-8.22-36.92-8.23h-2.57q-13.64,0-30.48,5.4l-4,1.55v.12a40.76,40.76,0,0,1,9.39,10.17,29.86,29.86,0,0,1,4.12,16,40.8,40.8,0,0,1-4.38,16q-2.31,4.89-8.23,9.9a30.73,30.73,0,0,1-15.44,6.69c-.51.26-2.61.38-6.3.38H2025q-6.82,0-15.7-3.6a38.49,38.49,0,0,1-6.17-4.11q-7.72-6.44-7.72-14.41v-1.67q0-8.1,8.62-13.38,6.16-3.21,15.69-3.21a46.13,46.13,0,0,1,7.33.64q.65-5.4,6.82-13,6.95-6.43,10.55-7.46-3.6-3-12.09-5.53a72.85,72.85,0,0,0-13.77-1.93h-5.66a58.09,58.09,0,0,0-32.15,9.64q-8.24,6.83-9,8.75a40.24,40.24,0,0,0-8.1,24.05V105q0,7.22,6,18.27a57.66,57.66,0,0,0,8.75,10.8q7.72,6.69,11.84,8.62A81.82,81.82,0,0,0,2005,149a90.82,90.82,0,0,0,21.74,3.22,109.68,109.68,0,0,0,51.7-13.12q14-6.56,39-24.44-20.07,11.72-46.82,20.2a305.58,305.58,0,0,1-40.91,9.9l-9.9,1.54V146a252.47,252.47,0,0,0,33.44-9,309.23,309.23,0,0,0,38.59-16A352.3,352.3,0,0,0,2123,102.81q37.82-27,41.29-28.69a174.74,174.74,0,0,1,25.21-13.37q23.42-9.27,46.05-9.27,20.58,0,35.76,6.44a82.69,82.69,0,0,1,13.38,6.81,63.4,63.4,0,0,1,12.86,11.58A47.29,47.29,0,0,1,2304.46,87a40.66,40.66,0,0,1,3,10l.65,4.76v2.06a68.28,68.28,0,0,1-1.93,13.63A54.33,54.33,0,0,1,2300,131q-7.59,10.94-21.61,16.46-4.24,2.06-14.92,3.86l-6.56.51h-5.14q-12.09-1.27-12.1-1.93a51.08,51.08,0,0,1-18.26-8.36h.26q7.2,3.61,20.32,5.28l5.4.26h1.93a71.05,71.05,0,0,0,27.4-5.54,73,73,0,0,0,11.7-7.07q8.11-7.08,9.14-9.9,5.4-8.74,5.4-12.22c.43-.78.9-3.39,1.42-7.85v-1.8q0-7.2-3.86-16.85a60.86,60.86,0,0,0-10.29-14.28,78,78,0,0,0-10.42-8.36,80.14,80.14,0,0,0-13.12-5.92q-10.93-3.21-18-3.21h-5.4q-9.39,0-27.92,4.5a169.67,169.67,0,0,0-39.74,17l-7.85,5Q2180.6,74,2201.3,68.08q22.77-5.65,37.82-5.66v.26q-15.82,2.82-24.7,6.17a258,258,0,0,0-46.82,19.94v.13h.13a108.29,108.29,0,0,1,15.95-4,98.74,98.74,0,0,1,13.38-1.42h8.49q5.79,0,18.65,2.83v.26a39.52,39.52,0,0,0-5.53-.26h-5.15q-28.42,0-56.72,14.41a124.37,124.37,0,0,0-13,8.23q-3.34,2.33-12.61,10.16a199.46,199.46,0,0,1-23.67,17.24q-7.46,4.5-17,9.39a151.27,151.27,0,0,1-36.28,12.86Zm15.3-67.79-.12-.13V90.59q0-7.08-8-17.37a47.73,47.73,0,0,0-5.53-5.4v-.13a26.16,26.16,0,0,0-9.39,5.15A33.26,33.26,0,0,0,2028.81,83a13,13,0,0,0-1,3.73h.38a15,15,0,0,1,7.46,5,9.68,9.68,0,0,1,2.83,6.68c-.6,1.89-1.54,2.83-2.83,2.83h-.9q-3.35,0-6.82-5.66a35.2,35.2,0,0,1-1.15-8.1v-.13a29.68,29.68,0,0,0-5.54-.38,28,28,0,0,0-16.59,5q-7.59,6.31-7.59,13.25v.39q0,7.71,9.91,14.92a33.3,33.3,0,0,0,17.1,4.5q17.88,0,28.17-12.73a36,36,0,0,0,6.69-14.67A48.53,48.53,0,0,1,2059.68,92.13Zm-22.12,5.92q0-5.14-6.43-9.39l-3-1h-.38v.13q0,9.64,5.78,12.6a4,4,0,0,0,1.8.39Q2036.92,100.75,2037.56,98.05Z"/><path d="M2592.38,16.63a75.54,75.54,0,0,1,29.33,7.71Q2631,29,2641.78,39.52l4.63,6.18a86.32,86.32,0,0,1,34.47-7.21h3.86q16.59,0,36,9.27Q2746,62.67,2746,89.43q0,13.77-9,29.33-22.38,35.76-81,35.76a190.53,190.53,0,0,1-36-3.61v-.51a143.71,143.71,0,0,0,18.78,1.29q53.51,0,80.26-28.3,14.41-17.11,14.41-35v-.26q0-24.3-20.32-37.56-17-8.74-28.82-8.74h-4.37A97,97,0,0,0,2646.92,48v.26q1.54,2.19,3.35,10.55l.25,4.88q0,18.8-16.72,29.33a27.56,27.56,0,0,1-6.69,1.55h-1.28q-9.27,0-14.92-10.55a33.1,33.1,0,0,1-1-6.69q0-9.39,12.86-20.58a82.74,82.74,0,0,1,20.07-10.55l.51-.51q-20.58-22.91-51.71-22.9-20.7,0-46.82,14.67A226.59,226.59,0,0,0,2519.32,57q-18.39,16.45-46.3,46.56-32,33.57-37.05,36-31.12,27.28-54.79,27.27h-1q-16.86,0-29.59-8.23-16.45-12.34-16.46-31.38,0-17.23,13.38-29.07a46.13,46.13,0,0,1,25.72-7.72h3.35a94.85,94.85,0,0,1,17.75,2.31v.52l-8-1q-21.48,0-35.5,14.15a35.42,35.42,0,0,0-8.49,22.89q0,14.55,12.61,25.73,14.14,9.53,26,9.52h1.29q17.74,0,35.75-14.41,2.33-.51,23.42-21.09,19.93-21.11,39.1-44.51,28.17-31.64,45.28-45Q2554.7,16.63,2592.38,16.63Zm20.07,60.71v.26q0,12.48,12.86,14.66h2.06q6.3,0,13.89-8.75A33.92,33.92,0,0,0,2648,63.19q0-9.13-3.6-14.92Q2612.44,60.61,2612.45,77.34Z"/><path d="M2837.6,51.36q11.7,0,18,1.41,2.82,0,15,4.37,7.85,3.73,9.9,4.76a76.45,76.45,0,0,1,8.11,6.95,55.18,55.18,0,0,1,7.46,10.55q2.31,9,2.31,10.42v4.63q-1,8.86-1.8,8.87a28.22,28.22,0,0,1-3.73,6.05,83.17,83.17,0,0,1-11.19,10.16,85,85,0,0,1-15,6.82,140.65,140.65,0,0,1-17.11,2.44q-11.31-.51-11.32-1.29a81.4,81.4,0,0,1-12.73-4,52.22,52.22,0,0,1-10-7.46,50.49,50.49,0,0,1-4.51-5.53,31.2,31.2,0,0,1-2.95-9.27l-.39-.77q0-7.71,4.12-12.6c0-.34,1.75-2,5.27-5a34,34,0,0,1,10-4.63,57,57,0,0,1,11.07-1.54,60.23,60.23,0,0,1,19.55,3.73,80.73,80.73,0,0,1,6.94,4.37q3.6,4.64,3.6,5.92l.26,1.93a9.7,9.7,0,0,1-1.28,4.76c-2.41,2.48-4.08,3.77-5,3.85a13.89,13.89,0,0,1-5.4,1.93,42.24,42.24,0,0,1-7.85.78h-2.06l-3.47-.26v-.26h4.24q10.93-1.67,10.94-2.44a14.19,14.19,0,0,0,5.27-4.38,26.28,26.28,0,0,0,1.8-3.47V91.23q-1.16-3.86-10.8-8.36,0-.9-11.71-2.83h-4.37q-2.84,0-12.74,2.32A45.22,45.22,0,0,0,2815,89.3,18,18,0,0,0,2811.1,100l-.13,1a15.59,15.59,0,0,0,2.32,6.94c.09.77,1.37,2.45,3.86,5a52.7,52.7,0,0,0,9.9,6q10.54,3.48,15.57,3.48l4.63.38a79.89,79.89,0,0,0,17.11-1.8q.88,0,10.67-3.86,6.3-2.7,7.85-4.76,1.15-.26,7.84-6.94,3.48-5.4,3.48-6.82l.9-5.27v-2.7c-1-6.18-1.8-9.26-2.32-9.26q-.9-2.07-6.56-9.52l-6.56-5.79q-9.39-5.28-11.06-5.27-5.91-2.58-19.55-5l-10.93-.9A71.36,71.36,0,0,0,2816,58.82q-2.05,0-13.5,5.4-.52,0-10.29,7.2-8.62,7.85-8.62,8.88-5,6.69-6.18,10.42a29.37,29.37,0,0,0-2.06,9.13v2.83a66,66,0,0,0,2.71,13.5q4.5,10.68,8.36,14.67,1.8,3.21,11.06,11.7,13.38,8.63,14.79,8.62a82,82,0,0,0,14.79,5.79q13.89,2.7,19,2.7h2.06a149.05,149.05,0,0,0,31.26-3.86q1.92,0,18.39-5.53a17.75,17.75,0,0,1-3.22-6.17,16.14,16.14,0,0,1-1-6.18l-.12-1.28q1-7.59,1.8-7.59,1-3.87,5.91-9.52,6.3-6.69,7.59-7.08a53.54,53.54,0,0,1,12.48-6.81q4.64-1.29,4.63-1.67c1.46-2.92,2.61-4.76,3.47-5.54q6.95-6.81,8.75-7.71a33.54,33.54,0,0,1,9.52-5.66q5.4-2.84,8.49-3.09a50.68,50.68,0,0,1,12.86-2.06h4.89q13.11,1.16,15.18,2.19A125.22,125.22,0,0,1,3001.6,86q21.09-12.61,22.51-12.61a235.57,235.57,0,0,1,27.14-9.65q19.3-3.47,24.31-3.47h5.92a158.85,158.85,0,0,1,23.15,2.57,95.48,95.48,0,0,1,15.82,5.28q4.38,1.92,13.12,8a33.67,33.67,0,0,1,4.64,4.25q6.67,7.33,6.68,7.59,7.34,11.7,7.33,13.89a21.37,21.37,0,0,1,2.06,7.72l.52,1.8q-.53,11.7-1.16,11.7-1.68,7.84-3.6,10.42a22.8,22.8,0,0,1-5.66,9.13,26.63,26.63,0,0,1-7,6.95,47,47,0,0,1-9.26,6.05q-2.84,2.05-11.19,4.5-11.07,2.31-16.59,2.31-14.16-.51-16.85-1.41-4,0-18.52-4.25-7.47-2.56-21.74-9.13-.39-.25-4.76-2.31h-.26v-.13l.52-.52a213.4,213.4,0,0,1-23.16,12.86,110.13,110.13,0,0,1-17.88,5.92,67,67,0,0,1-12.86,2.32l-7.72.25h-4q-4.87,0-19.55-3.47l-1.15-.64a54.34,54.34,0,0,1-14.41,2.31,6.91,6.91,0,0,1-2.19.13,108.21,108.21,0,0,1-19.42-1.93q-7.45-2.31-10.16-4.24a13.54,13.54,0,0,1-4-2.83q-24.06,6.94-32.67,6.94,0,.27-14.15.39h-4.89q-8.87,0-24.18-3a90.29,90.29,0,0,1-17-5.53q-4.11-1.55-14.53-8.23a69.1,69.1,0,0,1-5.66-5q-8.49-8.74-9.26-11.7a71.54,71.54,0,0,1-6.69-15.83A79.76,79.76,0,0,1,2772,105v-3.86q0-6.81,5.4-17.49,1.42-3.09,8.11-11.45,6.42-6,7.84-6.3a69.73,69.73,0,0,1,14.8-8.23,73.24,73.24,0,0,1,10.8-4.12A104.44,104.44,0,0,1,2837.6,51.36Zm59.17,86.56q.51,6.32,1.29,6.31c1.28,2.91,2.31,4.5,3.08,4.75a250.25,250.25,0,0,0,23.67-11.7h.26c-2-4.46-3-7.29-3-8.49l-1.16-5.27c0-5.41.47-9.09,1.42-11.07a18.09,18.09,0,0,0,1-3.6q-2.19.27-10.81,4.63a67.36,67.36,0,0,0-6.43,5,37.15,37.15,0,0,0-5.92,8.1q-.76.78-2.7,6.82Zm9.52,16.08a38.88,38.88,0,0,0,8.36,4.38,58.19,58.19,0,0,0,19.16,3.34q9.66-1,13.25-2.19v-.25q-1.28,0-10.54-6.69-7.33-6.94-7.34-8-.12-.51-.51-.51a189.2,189.2,0,0,1-20.32,8.87A9,9,0,0,0,2906.29,154Zm18.91-36.53V124q1.55,8.75,3,11.45,11.7-6.94,26.62-17.62l12.22-8.49v-.26a137.58,137.58,0,0,0-14.79-2.83c-2.66-.43-5.92-.81-9.78-1.16a126,126,0,0,0-13.89,2.06Q2926.88,109.37,2925.2,117.47Zm5.79-14.53h.25l4.63-.65a163.12,163.12,0,0,1,24.31,1.8q1.17.27,10.42,2.71,23-16.33,25-17.37l1.8-1v-.13q-15.32-4.62-18.52-4.63l-7.34-.26c-7.71.69-12.52,1.42-14.4,2.19a39.82,39.82,0,0,0-9.65,3.86,20.7,20.7,0,0,0-7.33,4.5Q2936.77,96.12,2931,102.94Zm1.15,39.61a29.67,29.67,0,0,0,6.43,6.69q1.93,2.44,8,5.92a33.5,33.5,0,0,0,5.92,2.7,117.73,117.73,0,0,0,17.49-8.62q15.55-10.67,23.67-17l10.93-8.74L2997,120q-7.59-3.21-17.49-6.81-29.71,19.68-33.19,21.74Zm79.37-14.15q-19.17,13.77-29.46,20.2-17.24,9.78-21.48,10.55c-.17.08-.82.3-1.93.64q0,.39,10.68,2.06l10.54.77q11.07,0,26.76-5.66,11.58-5.53,15.69-8.36,5.66-3.48,11.45-7.46l-22.13-12.74Zm1.93-37.81q17.1,9,21,12.09a12.15,12.15,0,0,1-3.21,1.67,43,43,0,0,1-7.08-4.24l-14.79-7q-7.34,4.5-25.73,17.24a.73.73,0,0,1-.51.25v.13q10.93,3.73,22.38,8.88a10,10,0,0,0,2.7,1.41A198.34,198.34,0,0,1,3026.68,108q11.71-7.59,16.21-9.26,3.48-2.06,13.51-5.79,9.9-2.57,13.25-2.57l8.74-.51h2.19A55.47,55.47,0,0,1,3095.37,92q1.55,0,10.42,4.12a75.9,75.9,0,0,1,7.72,5.66,19.75,19.75,0,0,1,4.5,5.53q2.7,5.4,2.7,8.49v.77q0,4.13-3.34,9.13-6,5.67-8.62,5.66-1.8,1-10.68,2.19h-2.18a51.66,51.66,0,0,1-13-1.93c-1,0-4-1.11-9-3.34q-3.73-1.68-4.63-1.93-17.62,10.41-26.37,15.82a153.16,153.16,0,0,0,18.91,9.52,99.79,99.79,0,0,0,16.59,5.78,147.12,147.12,0,0,0,19.17,2.19h.38q13-1,15.18-2.06a70,70,0,0,0,13.38-5q2.82-.65,8.23-5,1.93-1.15,8.36-8.36,4.76-7.34,6-12.35.9-1.15,1.67-8.62l.26-3.73q-1-8-1.67-8-3.22-10.42-6.56-15.05a73,73,0,0,0-8.37-9.39q-3.34-3.34-10.8-7.2-3.35-2.07-12.86-5-7.72-2.58-12.09-2.57-2.7-.65-15.83-1.42H3078q-6.32,0-23.8,4.76-11.84,4.25-13.51,4.89a193.93,193.93,0,0,0-20.32,11.06Zm1.93,35.24v.26q10.15,6,21.22,13,22.5-15.83,24.7-15.82c0-.17.21-.3.64-.39v-.12q-4.38-2.07-17.88-10.3l-4.37-3q-9.13,5.66-23.54,15.69Zm27.91-18.39,4,3q1.93,1.92,13.51,8.36a21.46,21.46,0,0,0,4.89,2.44q2.45-1.55,12.86-4.11,8.36-1.94,11.32-1.93H3096a10.42,10.42,0,0,1,5.92,1.41,3.49,3.49,0,0,1-.9,1.16l-1.67-.39h-5q-4.24,0-18.39,5.66a19.88,19.88,0,0,1-3.47,1.55q.63.65,9.77,3.85,7.34,2.19,10,2.19h5q1.29,0,10.16-1.67a32.06,32.06,0,0,0,6.56-3.86q4.13-4.64,4.12-8.36V114q-1.8-6.82-4.63-9a38.58,38.58,0,0,0-9.52-6.3,45.88,45.88,0,0,0-19.81-4.37q-10.68.77-15.31,2.19a50.05,50.05,0,0,0-9.77,3.08Q3056.27,100.49,3043.28,107.44Z"/><path d="M3459.31,2q24.83,5,39.3,18.71t16.72,31.58a78.67,78.67,0,0,1-3.73,35.5q-6,17.69-25.79,33.64t-40,21.09a167.86,167.86,0,0,1-42.9,5,253.24,253.24,0,0,1-44.12-4.18q-21.42-4-56.73-11.32t-53.57-7.79q-18.27-.45-31.51,3.67A52.08,52.08,0,0,0,3194.27,142q-9.45,10-6,22.84t21,19q17.49,6.1,32.35,4.18t21.48-8q6.63-6,5.66-14.08T3255,153q-12.81-4.87-35.83,4.12,22.65-13,38.21-7.91t17.81,15.11q2.25,10-7.07,17.3t-26.5,9.78q-17.18,2.5-35.44-4.25t-21.8-21.74q-3.54-15,6.24-24.88a66.4,66.4,0,0,1,22.64-15.12q12.86-5.2,35.56-5.46a296.17,296.17,0,0,1,40.78,2q18.06,2.32,52.09,10.74t58.4,9.2a190.48,190.48,0,0,0,44.57-3.41q20.19-4.17,39.17-19.94T3508.7,86a64.17,64.17,0,0,0,2.83-33.51,49.91,49.91,0,0,0-16.27-28.56Q3482.08,12,3458.73,7.3t-55.11,1.09q-31.78,5.79-51.07,27.66,15.82,4.64,25.15,9.84A29.21,29.21,0,0,1,3391,61.78q7.84-12,17.43-17.56a43.7,43.7,0,0,1,20.52-6,64.14,64.14,0,0,1,20.64,2.38,38.36,38.36,0,0,1,16.4,9.39q6.69,6.56,4.63,19.62t-17.24,22.89a77.89,77.89,0,0,1-33.25,12.09q-18.06,2.26-31.7.13a72.83,72.83,0,0,1-25.6-9.07q-12-6.94-17.3-17A45.32,45.32,0,0,1,3340.2,57q1.8-11.19,7-18.53a117.78,117.78,0,0,0-32.67,1.42,52.55,52.55,0,0,0-27.14,14.28q-11.72,11.31-19,34.34,4.36-24.82,17-37.43t28.55-15.63q15.95-3,35.76-.32,19.56-23.79,52.22-30.94T3459.31,2Zm-81.42,47.59q-6.55-4.3-27.53-10.74a67.1,67.1,0,0,0-6.81,18.52q0,16.08,7.84,24.7t15.31,11.7q7.46,3.09,21.42,5.41t31.7.12q17.76-2.17,30.36-12.54t13.7-19.36q1.1-9-3.6-14.85a27.24,27.24,0,0,0-12.8-8.62A46.41,46.41,0,0,0,3429,42a44.25,44.25,0,0,0-19,5.66q-8.55,4.89-19.23,20.45Q3384.45,53.94,3377.89,49.62Z"/></g></g></svg>